<?xml version="1.0" standalone="no"?>
<!DOCTYPE svg PUBLIC "-//W3C//DTD SVG 20010904//EN"
 "http://www.w3.org/TR/2001/REC-SVG-20010904/DTD/svg10.dtd">
<svg version="1.0" xmlns="http://www.w3.org/2000/svg"
 width="700.000000pt" height="700.000000pt" viewBox="0 0 700.000000 700.000000"
 preserveAspectRatio="xMidYMid meet">
<metadata>
Created by potrace 1.14, written by Peter Selinger 2001-2017
</metadata>
<g transform="translate(0.000000,700.000000) scale(0.100000,-0.100000)"
fill="#000000" stroke="none">
<path d="M2905 6673 c-209 -173 -449 -372 -534 -441 -84 -70 -161 -134 -171
-142 -10 -8 -35 -29 -57 -47 -21 -17 -48 -39 -60 -50 -26 -22 -32 -27 -168
-138 -60 -49 -112 -92 -115 -95 -3 -3 -27 -24 -55 -45 -27 -22 -52 -42 -55
-45 -3 -3 -68 -57 -145 -120 -77 -63 -149 -123 -160 -132 -11 -9 -67 -56 -125
-104 -58 -47 -116 -96 -130 -108 -24 -20 -114 -95 -153 -126 -10 -8 -27 -22
-37 -30 -10 -8 -138 -114 -284 -234 -146 -121 -266 -223 -266 -228 0 -5 12
-27 27 -51 15 -23 33 -51 39 -62 6 -11 64 -101 128 -200 64 -99 125 -196 136
-215 17 -29 560 -884 769 -1210 34 -52 108 -169 166 -260 57 -91 109 -170 114
-177 6 -7 11 -15 11 -19 0 -3 10 -20 22 -37 13 -17 28 -40 33 -49 6 -10 72
-116 148 -235 77 -120 189 -297 250 -394 62 -96 139 -218 173 -270 33 -51 78
-122 100 -156 96 -153 164 -259 174 -270 5 -7 10 -14 10 -17 0 -3 21 -38 47
-78 27 -40 52 -81 58 -91 5 -10 107 -169 225 -355 118 -185 229 -361 248 -390
l33 -53 58 113 c32 62 130 255 218 428 89 173 207 405 263 515 56 110 105 207
110 215 12 26 24 50 170 335 78 154 204 402 280 550 76 149 194 380 262 515
69 135 189 371 268 525 136 267 246 484 510 1000 64 127 206 406 315 620 109
215 221 435 250 490 68 129 149 289 150 295 0 3 3 10 6 15 8 12 221 428 358
699 56 110 100 200 98 201 -1 1 -92 -36 -202 -82 -110 -47 -393 -166 -630
-264 -236 -99 -449 -189 -472 -200 -24 -10 -45 -19 -48 -19 -3 0 -24 -9 -48
-19 -39 -18 -108 -47 -412 -173 -66 -28 -139 -59 -162 -69 -24 -11 -45 -19
-48 -19 -2 0 -28 -11 -57 -24 -29 -13 -75 -33 -103 -44 -55 -21 -662 -275
-710 -297 -26 -11 -379 -159 -411 -172 -9 -3 -12 236 -12 914 -1 1039 0 943
-9 942 -5 0 -179 -142 -388 -316z"/>
</g>
</svg>
